<?xml version="1.0" standalone="no"?>
<!DOCTYPE svg PUBLIC "-//W3C//DTD SVG 20010904//EN"
 "http://www.w3.org/TR/2001/REC-SVG-20010904/DTD/svg10.dtd">
<svg version="1.0" xmlns="http://www.w3.org/2000/svg"
 width="512.000000pt" height="512.000000pt" viewBox="0 0 512.000000 512.000000"
 preserveAspectRatio="xMidYMid meet">
<metadata>
Created by potrace 1.11, written by Peter Selinger 2001-2013
</metadata>
<g transform="translate(0.000000,512.000000) scale(0.100000,-0.100000)"
fill="#000000" stroke="none">
<path d="M2450 4319 c-241 -32 -399 -217 -444 -521 -3 -20 -9 -77 -12 -125 -3
-48 -11 -91 -18 -95 -6 -4 -99 -36 -206 -71 -444 -145 -698 -272 -851 -426
-90 -91 -122 -158 -122 -259 0 -139 52 -236 156 -286 70 -35 136 -46 302 -51
217 -7 257 -15 302 -57 18 -17 21 -28 16 -62 -12 -86 -53 -169 -288 -586 -220
-389 -323 -640 -338 -818 -9 -100 19 -146 95 -160 18 -3 247 -6 509 -6 468 0
477 1 510 22 46 28 80 72 168 217 183 300 218 352 261 397 27 28 55 48 68 48
48 0 120 -92 270 -345 110 -186 175 -277 221 -310 l41 -29 478 0 c478 0 521 2
560 23 48 25 57 95 31 216 -42 190 -133 401 -304 705 -23 41 -53 95 -67 120
-14 25 -54 97 -89 160 -133 238 -178 369 -141 413 12 14 111 45 142 45 48 -1
310 13 335 17 191 34 285 135 287 305 1 75 -4 96 -39 167 -38 79 -154 190
-275 263 -144 86 -371 182 -658 276 -107 35 -201 68 -208 73 -8 4 -15 34 -18
67 -14 179 -25 244 -59 338 -59 163 -167 272 -315 317 -71 21 -211 30 -300 18z"/>
</g>
</svg>
